# xmcd
#
# Track frame offsets: 
#        150
#        15439
#        35471
#        47898
#        61904
#        73520
#        88534
#        104241
#        117536
#        132011
#        142353
#        155388
#        167278
#        180874
#        195908
#
# Disc length: 2799 seconds
#
# Revision: 1
# Processed by: cddbd v1.5.2PL0 Copyright (c) Steve Scherf et al.
# Submitted via: ExactAudioCopy v0.99pb4
#
DISCID=c50aed0f
DTITLE=Miles Davis - Miles Davis [Disc 3]
DYEAR=2007
DGENRE=Jazz
TTITLE0=Embraceable You [with Charlie Parker]
TTITLE1=Miles Ahead
TTITLE2=Bongo Bop [with the Charlie Parker Quintet]
TTITLE3=Rocker
TTITLE4=Bean-A-Re-Bop [with the Coleman Hawkins All Stars]
TTITLE5=Now's The Time [with Charlie Parker's Ree Boppers]
TTITLE6=Dewey Square [with the Charlie Parker Quintet]
TTITLE7=Quasimodo [with the Charlie Parker Sextet]
TTITLE8=Jeru
TTITLE9=Israel
TTITLE10=Little Willie Leaps [with the Miles Davis All Stars]
TTITLE11=Bird Get's The Worm [with the Charlie Parker All Stars]
TTITLE12=Ornithology [with the Charlie Parker Quintet]
TTITLE13=Moons Dreams
TTITLE14=Klactoveedsedstene [with the Charlie Parker Quintet]
EXTD=YEAR: 2007
EXTT0=
EXTT1=
EXTT2=
EXTT3=
EXTT4=
EXTT5=
EXTT6=
EXTT7=
EXTT8=
EXTT9=
EXTT10=
EXTT11=
EXTT12=
EXTT13=
EXTT14=
PLAYORDER=
